<?xml version="1.0" encoding="UTF-8"?>
<svg width="1440px" height="434px" viewBox="0 0 1440 434" version="1.1" xmlns="http://www.w3.org/2000/svg" xmlns:xlink="http://www.w3.org/1999/xlink">
    <!-- Generator: Sketch 50.2 (55047) - http://www.bohemiancoding.com/sketch -->
    <title>Group</title>
    <desc>Created with Sketch.</desc>
    <defs>
        <linearGradient x1="101.499999%" y1="-0.499999523%" x2="0.499999523%" y2="101.499999%" id="linearGradient-1">
            <stop stop-color="#DBFC00" offset="0%"></stop>
            <stop stop-color="#2192FF" offset="100%"></stop>
        </linearGradient>
    </defs>
    <g id="Desktop" stroke="none" stroke-width="1" fill="none" fill-rule="evenodd">
        <g id="All-tasks" transform="translate(0.000000, -590.000000)">
            <g id="Group" transform="translate(0.000000, 590.000000)">
                <path d="M0,226.042162 C108.048681,126.655235 211.933633,128.518248 350.294299,129.126426 C518.716431,129.866744 687.372742,156.41361 855.653674,143.532676 C921.658542,138.480385 990.955107,117.282531 1050.99742,89.7045515 C1111.16793,62.0676949 1175.34007,21.2388636 1242.37242,8.03267648 C1302.88952,-3.88992615 1373.52281,-3.88992615 1440.01305,17.2655918 L1440.01305,721.165527 L0,721.165527 L0,226.042162 Z" id="Path-2" fill="#2737CD"></path>
                <path d="M1.03669424,236.060262 C109.085375,142.323721 215.081366,113.027862 352.802621,141.299683 C490.523876,169.571504 687.372742,188.741142 855.653674,176.592521 C921.658542,171.827464 990.955107,151.834759 1050.99742,125.824655 C1111.16793,99.75902 1163.8123,50.9173575 1237.0403,30.9645818 C1310.2683,11.0118061 1373.52281,11.0118061 1440.01305,30.9645818 L1440.01305,721.38555 L0,721.38555 L1.03669424,236.060262 Z" id="Path-2" fill="url(#linearGradient-1)"></path>
            </g>
        </g>
    </g>
</svg>