<?xml version="1.0" encoding="UTF-8"?>
<svg width="27px" height="27px" viewBox="0 0 27 27" version="1.1" xmlns="http://www.w3.org/2000/svg" xmlns:xlink="http://www.w3.org/1999/xlink">
    <!-- Generator: Sketch 50.2 (55047) - http://www.bohemiancoding.com/sketch -->
    <title>↳ Icon 1</title>
    <desc>Created with Sketch.</desc>
    <defs>
        <path d="M21.1956522,19.3532609 L19.3532609,21.1956522 L14.673913,16.5163043 L9.99456522,21.1956522 L8.15217391,19.3532609 L12.8315217,14.673913 L8.15217391,9.99456522 L9.99456522,8.15217391 L14.673913,12.8315217 L19.3532609,8.15217391 L21.1956522,9.99456522 L16.5163043,14.673913 L21.1956522,19.3532609 Z M14.673913,1.63043478 C7.4673913,1.63043478 1.63043478,7.4673913 1.63043478,14.673913 C1.63043478,21.8804348 7.4673913,27.7173913 14.673913,27.7173913 C21.8804348,27.7173913 27.7173913,21.8804348 27.7173913,14.673913 C27.7173913,7.4673913 21.8804348,1.63043478 14.673913,1.63043478 L14.673913,1.63043478 Z" id="path-1"></path>
    </defs>
    <g id="Desktop" stroke="none" stroke-width="1" fill="none" fill-rule="evenodd">
        <g id="All-tasks" transform="translate(-304.000000, -795.000000)">
            <g id="Icon-/-Cancel-/-Filled" transform="translate(303.000000, 794.000000)">
                <mask id="mask-2" fill="white">
                    <use xlink:href="#path-1"></use>
                </mask>
                <g id="Mask"></g>
                <g id="✱-/-Color-/-Icons-/-Error" mask="url(#mask-2)" fill="#B00020" fill-rule="evenodd">
                    <rect id="Rectangle" x="0" y="0" width="29.0575397" height="29.0575397"></rect>
                </g>
            </g>
        </g>
    </g>
</svg>