<svg xmlns="http://www.w3.org/2000/svg" width="163" height="101" viewBox="0 0 163 101">
    <g fill="none" fill-rule="evenodd">
        <path fill="#DBFC00" fill-rule="nonzero" d="M100.982 10.135c-24.288.692-79.485-6.123-95.208 18.345-20.21 31.493 17.37 43.463 40.69 47.992 22.856 4.439 69.061 25.262 90.474 12.522 47.005-27.986 16.071-80.363-35.956-78.86z"/>
        <g fill="#372D5D" font-family="Noteworthy-Bold, Noteworthy" font-size="50.975" font-weight="bold">
            <text transform="translate(19.241 1.492)">
                <tspan x="0" y="65">t</tspan>
            </text>
            <text transform="translate(19.241 1.492)">
                <tspan x="15.482" y="65">as</tspan>
            </text>
            <text transform="translate(19.241 1.492)">
                <tspan x="67.859" y="65">k</tspan>
            </text>
            <text transform="translate(19.241 1.492)">
                <tspan x="92.008" y="65">y</tspan>
            </text>
        </g>
        <path fill="#372D5D" fill-rule="nonzero" d="M103.237 12.631c-21.226-.403-42.777-.475-63.696 3.651-9.75 1.925-20.047 4.812-28.065 10.947C3.7 33.17.65 41.724.944 51.39c.698 21.148 21.317 28.871 39.277 31.331 9.022 1.251 18.122 1.51 27.216 1.804 12.313.44 22.225 6.148 33.142 11.176 11.717 5.413 23.584 7.404 35.74 2.003 13.455-6.015 19.812-19.735 21.683-33.743.5-3.75.649-7.537.445-11.314-.157-2.887-4.668-2.905-4.511 0 .691 12.878-2.64 29.755-13.792 37.827-10.586 7.693-23.458 7.29-35.012 2.358-10.424-4.451-20.12-10.827-31.565-12.367-8.307-1.118-16.842-.667-25.202-1.37-15.182-1.288-37.689-4.656-42.17-22.256-2.105-8.27-.601-18.086 5.708-24.125 6.544-6.267 15.951-9.178 24.564-11.193 21.75-5.089 44.558-4.812 66.764-4.409 2.905.054 2.905-4.457 0-4.511l.006.03z"/>
        <path fill="#006FFF" fill-rule="nonzero" d="M122.539 19.446c1.203 3.783 3.115 8.878 6.195 11.578 3.934 3.447 7.446-2.532 9.714-5.004a165.538 165.538 0 0 1 23.139-20.865c2.742-2.04.066-6.707-2.713-4.638a176.359 176.359 0 0 0-15.085 12.505 168.425 168.425 0 0 0-6.923 6.827c-1.119 1.203-2.226 2.364-3.308 3.566-.764.849-2.027 3.092-3.074 3.393l2.07.27c-1.174-.601-2.178-2.965-2.774-4.084a31.09 31.09 0 0 1-2.063-4.95c-1.058-3.272-6.249-1.87-5.178 1.432v-.03z"/>
    </g>
</svg>
